<svg width="98" height="17" viewBox="0 0 98 17" fill="none" xmlns="http://www.w3.org/2000/svg">
<path d="M7.58 16L4.5 10.56H3.18V16H0.38V2.04H5.62C6.7 2.04 7.62 2.23333 8.38 2.62C9.14 2.99333 9.70667 3.50667 10.08 4.16C10.4667 4.8 10.66 5.52 10.66 6.32C10.66 7.24 10.3933 8.07333 9.86 8.82C9.32667 9.55333 8.53333 10.06 7.48 10.34L10.82 16H7.58ZM3.18 8.46H5.52C6.28 8.46 6.84667 8.28 7.22 7.92C7.59333 7.54667 7.78 7.03333 7.78 6.38C7.78 5.74 7.59333 5.24667 7.22 4.9C6.84667 4.54 6.28 4.36 5.52 4.36H3.18V8.46ZM23.4925 10.22C23.4925 10.62 23.4658 10.98 23.4125 11.3H15.3125C15.3792 12.1 15.6592 12.7267 16.1525 13.18C16.6458 13.6333 17.2525 13.86 17.9725 13.86C19.0125 13.86 19.7525 13.4133 20.1925 12.52H23.2125C22.8925 13.5867 22.2792 14.4667 21.3725 15.16C20.4658 15.84 19.3525 16.18 18.0325 16.18C16.9658 16.18 16.0058 15.9467 15.1525 15.48C14.3125 15 13.6525 14.3267 13.1725 13.46C12.7058 12.5933 12.4725 11.5933 12.4725 10.46C12.4725 9.31333 12.7058 8.30667 13.1725 7.44C13.6392 6.57333 14.2925 5.90667 15.1325 5.44C15.9725 4.97333 16.9392 4.74 18.0325 4.74C19.0858 4.74 20.0258 4.96667 20.8525 5.42C21.6925 5.87333 22.3392 6.52 22.7925 7.36C23.2592 8.18667 23.4925 9.14 23.4925 10.22ZM20.5925 9.42C20.5792 8.7 20.3192 8.12667 19.8125 7.7C19.3058 7.26 18.6858 7.04 17.9525 7.04C17.2592 7.04 16.6725 7.25333 16.1925 7.68C15.7258 8.09333 15.4392 8.67333 15.3325 9.42H20.5925ZM39.2963 4.76C40.6563 4.76 41.7496 5.18 42.5763 6.02C43.4163 6.84667 43.8363 8.00667 43.8363 9.5V16H41.0363V9.88C41.0363 9.01333 40.8163 8.35333 40.3763 7.9C39.9363 7.43333 39.3363 7.2 38.5763 7.2C37.8163 7.2 37.2096 7.43333 36.7563 7.9C36.3163 8.35333 36.0963 9.01333 36.0963 9.88V16H33.2963V9.88C33.2963 9.01333 33.0763 8.35333 32.6363 7.9C32.1963 7.43333 31.5963 7.2 30.8363 7.2C30.0629 7.2 29.4496 7.43333 28.9963 7.9C28.5563 8.35333 28.3363 9.01333 28.3363 9.88V16H25.5363V4.92H28.3363V6.26C28.6963 5.79333 29.1563 5.42667 29.7163 5.16C30.2896 4.89333 30.9163 4.76 31.5963 4.76C32.4629 4.76 33.2363 4.94667 33.9163 5.32C34.5963 5.68 35.1229 6.2 35.4963 6.88C35.8563 6.24 36.3763 5.72667 37.0563 5.34C37.7496 4.95333 38.4963 4.76 39.2963 4.76ZM47.9133 3.6C47.4199 3.6 47.0066 3.44667 46.6733 3.14C46.3533 2.82 46.1933 2.42667 46.1933 1.96C46.1933 1.49333 46.3533 1.10667 46.6733 0.799999C47.0066 0.479999 47.4199 0.319999 47.9133 0.319999C48.4066 0.319999 48.8133 0.479999 49.1333 0.799999C49.4666 1.10667 49.6333 1.49333 49.6333 1.96C49.6333 2.42667 49.4666 2.82 49.1333 3.14C48.8133 3.44667 48.4066 3.6 47.9133 3.6ZM49.2933 4.92V16H46.4933V4.92H49.2933ZM58.1997 4.76C59.5197 4.76 60.5864 5.18 61.3997 6.02C62.213 6.84667 62.6197 8.00667 62.6197 9.5V16H59.8197V9.88C59.8197 9 59.5997 8.32667 59.1597 7.86C58.7197 7.38 58.1197 7.14 57.3597 7.14C56.5864 7.14 55.973 7.38 55.5197 7.86C55.0797 8.32667 54.8597 9 54.8597 9.88V16H52.0597V4.92H54.8597V6.3C55.233 5.82 55.7064 5.44667 56.2797 5.18C56.8664 4.9 57.5064 4.76 58.1997 4.76ZM64.5623 10.42C64.5623 9.3 64.7823 8.30667 65.2223 7.44C65.6757 6.57333 66.2823 5.90667 67.0423 5.44C67.8157 4.97333 68.6757 4.74 69.6223 4.74C70.449 4.74 71.169 4.90667 71.7823 5.24C72.409 5.57333 72.909 5.99333 73.2823 6.5V4.92H76.1023V16H73.2823V14.38C72.9223 14.9 72.4223 15.3333 71.7823 15.68C71.1557 16.0133 70.429 16.18 69.6023 16.18C68.669 16.18 67.8157 15.94 67.0423 15.46C66.2823 14.98 65.6757 14.3067 65.2223 13.44C64.7823 12.56 64.5623 11.5533 64.5623 10.42ZM73.2823 10.46C73.2823 9.78 73.149 9.2 72.8823 8.72C72.6157 8.22667 72.2557 7.85333 71.8023 7.6C71.349 7.33333 70.8623 7.2 70.3423 7.2C69.8223 7.2 69.3423 7.32667 68.9023 7.58C68.4623 7.83333 68.1023 8.20667 67.8223 8.7C67.5557 9.18 67.4223 9.75333 67.4223 10.42C67.4223 11.0867 67.5557 11.6733 67.8223 12.18C68.1023 12.6733 68.4623 13.0533 68.9023 13.32C69.3557 13.5867 69.8357 13.72 70.3423 13.72C70.8623 13.72 71.349 13.5933 71.8023 13.34C72.2557 13.0733 72.6157 12.7 72.8823 12.22C73.149 11.7267 73.2823 11.14 73.2823 10.46ZM84.977 4.76C86.297 4.76 87.3637 5.18 88.177 6.02C88.9904 6.84667 89.397 8.00667 89.397 9.5V16H86.597V9.88C86.597 9 86.377 8.32667 85.937 7.86C85.497 7.38 84.897 7.14 84.137 7.14C83.3637 7.14 82.7504 7.38 82.297 7.86C81.857 8.32667 81.637 9 81.637 9.88V16H78.837V4.92H81.637V6.3C82.0104 5.82 82.4837 5.44667 83.057 5.18C83.6437 4.9 84.2837 4.76 84.977 4.76ZM95.3197 7.22V12.58C95.3197 12.9533 95.4064 13.2267 95.5797 13.4C95.7664 13.56 96.073 13.64 96.4997 13.64H97.7997V16H96.0397C93.6797 16 92.4997 14.8533 92.4997 12.56V7.22H91.1797V4.92H92.4997V2.18H95.3197V4.92H97.7997V7.22H95.3197Z" fill="black"/>
</svg>
